<svg width="67" height="67" viewBox="0 0 67 67" fill="none" xmlns="http://www.w3.org/2000/svg">
<path d="M32 8C14.3553 8 8.60014e-05 17.3496 8.60014e-05 28.8421C8.60014e-05 32.86 1.75688 36.7513 5.08595 40.1154C4.45555 45.1615 2.76595 48.9076 0.312619 50.6823C-0.0116473 50.917 -0.0927139 51.2759 0.112086 51.5723C0.294486 51.8371 0.666752 52 1.06675 52C1.11582 52 1.16595 51.9977 1.21608 51.9923C1.64808 51.9483 11.6833 50.9023 18.9409 47.8717C23.0635 49.0752 27.4539 49.6842 32 49.6842C49.6448 49.6842 64 40.3346 64 28.8421C64 17.3496 49.6448 8 32 8Z" fill="white"/>
<path d="M25 32.09C24.28 32.09 23.6667 31.9433 23.16 31.65C22.6533 31.3567 22.2633 30.94 21.99 30.4C21.7233 29.8533 21.59 29.21 21.59 28.47C21.59 27.73 21.7233 27.09 21.99 26.55C22.2633 26.01 22.6533 25.5933 23.16 25.3C23.6667 25.0067 24.28 24.86 25 24.86C25.5 24.86 25.9467 24.9333 26.34 25.08C26.7333 25.2267 27.0767 25.44 27.37 25.72L27.01 26.55C26.69 26.2767 26.3767 26.08 26.07 25.96C25.77 25.84 25.42 25.78 25.02 25.78C24.26 25.78 23.68 26.0133 23.28 26.48C22.88 26.9467 22.68 27.61 22.68 28.47C22.68 29.33 22.88 29.9967 23.28 30.47C23.68 30.9367 24.26 31.17 25.02 31.17C25.42 31.17 25.77 31.11 26.07 30.99C26.3767 30.87 26.69 30.67 27.01 30.39L27.37 31.22C27.0767 31.5 26.7333 31.7167 26.34 31.87C25.9467 32.0167 25.5 32.09 25 32.09ZM28.6757 32V24.95H31.1157C31.909 24.95 32.579 25.0867 33.1257 25.36C33.679 25.6333 34.0957 26.0333 34.3757 26.56C34.6624 27.08 34.8057 27.7167 34.8057 28.47C34.8057 29.2167 34.6624 29.8533 34.3757 30.38C34.0957 30.9067 33.679 31.31 33.1257 31.59C32.579 31.8633 31.909 32 31.1157 32H28.6757ZM29.7157 31.13H31.0557C31.9624 31.13 32.6357 30.91 33.0757 30.47C33.5224 30.03 33.7457 29.3633 33.7457 28.47C33.7457 27.5767 33.5224 26.9133 33.0757 26.48C32.6357 26.04 31.9624 25.82 31.0557 25.82H29.7157V31.13ZM37.4653 32V25.82H35.0553V24.95H40.9153V25.82H38.5053V32H37.4653Z" fill="url(#paint0_angular_1_17)"/>
<defs>
<radialGradient id="paint0_angular_1_17" cx="0" cy="0" r="1" gradientUnits="userSpaceOnUse" gradientTransform="translate(33.5 30) rotate(90) scale(5 12.5)">
<stop stop-color="#FF8E1C"/>
<stop offset="1" stop-color="#FFB366"/>
</radialGradient>
</defs>
</svg>
